nColumns=28
nRows=33
DataType=double
version=3
OpenSimVersion=4.1
endheader
time	ground_force_1_vx	ground_force_1_vy	ground_force_1_vz	ground_force_1_px	ground_force_1_py	ground_force_1_pz	ground_force_1_mx	ground_force_1_my	ground_force_1_mz	ground_force_2_vx	ground_force_2_vy	ground_force_2_vz	ground_force_2_px	ground_force_2_py	ground_force_2_pz	ground_force_2_mx	ground_force_2_my	ground_force_2_mz	ground_force_3_vx	ground_force_3_vy	ground_force_3_vz	ground_force_3_px	ground_force_3_py	ground_force_3_pz	ground_force_3_mx	ground_force_3_my	ground_force_3_mz
4.5	-30.4364	724.641	-73.6517	-0.254316	0.006	-0.335468	0	-5.56798	0	26.1022	274.403	26.4552	-0.26519	0.006	-0.898147	0	-1.95286	0	0	0	0	0	0	0	0	0	0
4.51	-29.2192	713.857	-72.8214	-0.254116	0.006	-0.335536	0	-5.25592	0	25.7467	271.433	26.6258	-0.263899	0.006	-0.898614	0	-1.85178	0	0	0	0	0	0	0	0	0	0
4.52	-27.8541	702.734	-71.7567	-0.254002	0.006	-0.335667	0	-4.95013	0	25.3138	268.582	26.8359	-0.262735	0.006	-0.899122	0	-1.74251	0	0	0	0	0	0	0	0	0	0
4.53	-26.3635	691.441	-70.4981	-0.253976	0.006	-0.335861	0	-4.65435	0	24.8203	265.848	27.0777	-0.261721	0.006	-0.899662	0	-1.62582	0	0	0	0	0	0	0	0	0	0
4.54	-24.7722	680.136	-69.0984	-0.254042	0.006	-0.336112	0	-4.3719	0	24.2785	263.231	27.3446	-0.260872	0.006	-0.900227	0	-1.50262	0	0	0	0	0	0	0	0	0	0
4.55	-23.105	668.963	-67.6184	-0.254199	0.006	-0.336413	0	-4.10564	0	23.6941	260.728	27.6315	-0.260198	0.006	-0.90081	0	-1.37384	0	0	0	0	0	0	0	0	0	0
4.56	-21.3825	658.055	-66.1227	-0.254449	0.006	-0.336754	0	-3.85805	0	23.0661	258.33	27.9342	-0.259699	0.006	-0.901406	0	-1.24069	0	0	0	0	0	0	0	0	0	0
4.57	-19.6202	647.533	-64.6752	-0.254789	0.006	-0.337122	0	-3.63107	0	22.3889	256.021	28.2492	-0.259369	0.006	-0.902011	0	-1.10464	0	0	0	0	0	0	0	0	0	0
4.58	-17.8303	637.496	-63.3356	-0.255216	0.006	-0.337505	0	-3.42597	0	21.6544	253.774	28.5729	-0.259192	0.006	-0.902621	0	-0.967439	0	0	0	0	0	0	0	0	0	0
4.59	-16.0224	628.013	-62.1573	-0.255725	0.006	-0.337889	0	-3.24316	0	20.8557	251.555	28.9018	-0.259152	0.006	-0.903236	0	-0.831025	0	0	0	0	0	0	0	0	0	0
4.6	-14.2075	619.141	-61.1859	-0.25631	0.006	-0.338258	0	-3.08222	0	19.9909	249.319	29.2309	-0.259226	0.006	-0.903854	0	-0.697109	0	0	0	0	0	0	0	0	0	0
4.61	-12.3989	610.931	-60.4577	-0.256966	0.006	-0.338602	0	-2.942	0	19.0649	247.012	29.5517	-0.259395	0.006	-0.904474	0	-0.566851	0	0	0	0	0	0	0	0	0	0
4.62	-10.6118	603.421	-59.998	-0.257684	0.006	-0.338909	0	-2.82061	0	18.0886	244.574	29.8512	-0.259639	0.006	-0.905092	0	-0.440732	0	0	0	0	0	0	0	0	0	0
4.63	-8.86339	596.633	-59.8217	-0.258455	0.006	-0.339171	0	-2.71555	0	17.0785	241.941	30.1123	-0.259942	0.006	-0.905707	0	-0.31846	0	0	0	0	0	0	0	0	0	0
4.64	-7.17511	590.567	-59.9333	-0.259262	0.006	-0.339382	0	-2.62392	0	16.0546	239.058	30.3159	-0.260291	0.006	-0.906313	0	-0.199205	0	0	0	0	0	0	0	0	0	0
4.65	-5.57357	585.2	-60.3259	-0.260087	0.006	-0.33954	0	-2.54271	0	15.0358	235.881	30.4455	-0.260677	0.006	-0.906907	0	-0.081962	0	0	0	0	0	0	0	0	0	0
4.66	-4.08551	580.486	-60.9783	-0.260908	0.006	-0.339643	0	-2.46915	0	14.0369	232.39	30.4912	-0.261093	0.006	-0.907483	0	0.034111	0	0	0	0	0	0	0	0	0	0
4.67	-2.73262	576.365	-61.8541	-0.261701	0.006	-0.339696	0	-2.40087	0	13.0692	228.586	30.4511	-0.261536	0.006	-0.908038	0	0.149618	0	0	0	0	0	0	0	0	0	0
4.68	-1.53137	572.77	-62.9035	-0.262443	0.006	-0.339704	0	-2.33587	0	12.1398	224.489	30.3307	-0.262007	0.006	-0.908569	0	0.264771	0	0	0	0	0	0	0	0	0	0
4.69	-0.493896	569.621	-64.0664	-0.263109	0.006	-0.339676	0	-2.27261	0	11.2535	220.139	30.1401	-0.26251	0.006	-0.909073	0	0.379423	0	0	0	0	0	0	0	0	0	0
4.7	0.373313	566.816	-65.275	-0.263676	0.006	-0.339622	0	-2.21015	0	10.4141	215.588	29.8906	-0.263049	0.006	-0.909547	0	0.493065	0	0	0	0	0	0	0	0	0	0
4.71	1.06843	564.227	-66.4601	-0.264125	0.006	-0.339549	0	-2.14809	0	9.62409	210.903	29.5941	-0.263628	0.006	-0.909986	0	0.604701	0	0	0	0	0	0	0	0	0	0
4.72	1.59329	561.704	-67.5585	-0.26444	0.006	-0.339467	0	-2.08647	0	8.8822	206.175	29.2636	-0.264253	0.006	-0.910384	0	0.712943	0	0	0	0	0	0	0	0	0	0
4.73	1.95633	559.084	-68.5201	-0.264611	0.006	-0.339381	0	-2.02563	0	8.18345	201.509	28.9146	-0.264931	0.006	-0.910734	0	0.815937	0	0	0	0	0	0	0	0	0	0
4.74	2.17541	556.202	-69.3119	-0.264636	0.006	-0.339292	0	-1.96607	0	7.52181	197.024	28.565	-0.265665	0.006	-0.91103	0	0.911395	0	0	0	0	0	0	0	0	0	0
4.75	2.27504	552.902	-69.9161	-0.26452	0.006	-0.339203	0	-1.90837	0	6.89205	192.839	28.2329	-0.266461	0.006	-0.911268	0	0.996837	0	0	0	0	0	0	0	0	0	0
4.76	2.28466	549.052	-70.3234	-0.264275	0.006	-0.339113	0	-1.85321	0	6.28983	189.064	27.9339	-0.267316	0.006	-0.911445	0	1.06978	0	0	0	0	0	0	0	0	0	0
4.77	2.23849	544.541	-70.5301	-0.263917	0.006	-0.339022	0	-1.80138	0	5.71173	185.796	27.6799	-0.268227	0.006	-0.911559	0	1.12802	0	0	0	0	0	0	0	0	0	0
4.78	2.17192	539.28	-70.5378	-0.263465	0.006	-0.338931	0	-1.75368	0	5.1545	183.111	27.4796	-0.269185	0.006	-0.911611	0	1.1699	0	0	0	0	0	0	0	0	0	0
4.79	2.11701	533.205	-70.3522	-0.262936	0.006	-0.338842	0	-1.71076	0	4.61412	181.069	27.3415	-0.270175	0.006	-0.911603	0	1.19439	0	0	0	0	0	0	0	0	0	0
4.8	2.09949	526.284	-69.9816	-0.262346	0.006	-0.338756	0	-1.673	0	4.08673	179.721	27.2757	-0.271183	0.006	-0.91154	0	1.20127	0	0	0	0	0	0	0	0	0	0
4.81	2.13501	518.524	-69.4384	-0.261708	0.006	-0.338677	0	-1.64024	0	3.57198	179.108	27.2946	-0.272187	0.006	-0.911428	0	1.19149	0	0	0	0	0	0	0	0	0	0
4.82	2.22677	509.975	-68.7392	-0.261029	0.006	-0.338605	0	-1.61173	0	3.07463	179.255	27.4108	-0.273171	0.006	-0.911273	0	1.16732	0	0	0	0	0	0	0	0	0	0
